<svg xmlns="http://www.w3.org/2000/svg" viewBox="-2 -1.5 20 20" fill="#4A9EF5"><path d="m0 14.866 2.161-3.521c1.893 1.257 3.967 1.899 5.67 1.899 1.002 0 1.46-.304 1.46-.885v-.06c0-.642-.916-.92-2.653-1.414C3.38 9.026.787 7.925.787 4.586v-.07C.787 1.006 3.596 0 7.398 0c2.412 0 4.91.703 6.802 1.934L12.22 5.612c-1.71-.954-3.569-1.535-4.874-1.535-.882 0-1.34.338-1.34.798v.06c0 .642.942.954 2.68 1.475 3.258.919 5.85 2.055 5.85 5.273v.061c0 3.651-2.713 5.551-6.74 5.551A13.15 13.15 0 0 1 0 14.866z"/></svg>
